<?xml version="1.0" encoding="UTF-8"?>
<svg version="1.1" viewBox="0 0 1600 1600" width="1280" height="1280" xmlns="http://www.w3.org/2000/svg">
<path transform="translate(573 146)" d="m0 0c13.6 10.7 22.9 25.5 25.7 42.7 0.189 1.9 0.366 3.8 0.534 5.7 0.0879 0.991 0.176 1.98 0.266 3 0.0659 0.756 0.132 1.51 0.2 2.29 0.694-3.12e-4 1.39-6.24e-4 2.1-9.45e-4 75.5-0.0339 151-0.0653 227-0.0837 1.69-4.14e-4 1.69-4.14e-4 3.42-8.37e-4 24.5-0.00599 49.1-0.0115 73.6-0.0166 12-0.00249 24.1-0.00509 36.1-0.00773 1.8-3.92e-4 1.8-3.92e-4 3.63-7.92e-4 38.8-0.00852 77.6-0.0235 116-0.0419 39.9-0.0189 79.7-0.0312 120-0.0352 5.63-5.76e-4 11.3-0.00123 16.9-0.00192 1.66-2.02e-4 1.66-2.02e-4 3.36-4.09e-4 17.8-0.00236 35.7-0.0116 53.5-0.0235 17.9-0.0118 35.9-0.0163 53.8-0.0133 10.7 0.00152 21.3-0.00253 32-0.0146 7.12-0.00751 14.2-0.00773 21.4-0.00207 4.06 0.00301 8.11 0.00291 12.2-0.0061 3.7-0.00816 7.39-0.00691 11.1 0.00149 1.94 0.00208 3.88-0.00557 5.82-0.0137 21.3 0.0811 40 4.62 55.8 19.8 12.8 13 19.1 29.9 19.1 48.1-0.499 27.6-18.9 47.7-35.1 68.3-3.14 4.01-6.15 8.1-9.12 12.2-4.04 5.57-8.2 11.1-12.3 16.6-1.75 2.33-3.49 4.65-5.23 6.98-6.55 8.75-13.1 17.5-19.8 26.1-4.77 6.24-9.45 12.5-14 18.9-4.04 5.72-8.38 11.2-12.7 16.7-3.77 4.82-7.44 9.69-11 14.7-2.49 3.44-5.04 6.84-7.59 10.2-0.501 0.666-1 1.33-1.52 2.02-1.07 1.42-2.13 2.84-3.2 4.26-3.14 4.18-6.27 8.36-9.41 12.5-1.28 1.71-2.56 3.42-3.84 5.12-0.599 0.799-1.2 1.6-1.82 2.42-13.4 17.9-13.4 17.9-14.9 19.9-1.01 1.35-2.03 2.7-3.04 4.06-2.67 3.58-5.37 7.14-8.11 10.7-0.555 0.722-1.11 1.44-1.68 2.19-1.07 1.39-2.14 2.77-3.23 4.15-2.62 3.43-3.66 4.78-3.66 9.23 1.08 2.02 1.08 2.02 2.64 3.98 0.57 0.762 1.14 1.52 1.73 2.31 0.621 0.811 1.24 1.62 1.88 2.46 0.638 0.848 1.28 1.7 1.93 2.57 1.31 1.74 2.62 3.48 3.94 5.21 2.15 2.82 4.27 5.66 6.39 8.5 1.95 2.61 3.91 5.22 5.88 7.82 3.69 4.9 7.36 9.81 11 14.7 2.9 3.86 5.79 7.73 8.7 11.6 5.37 7.15 10.7 14.3 16 21.5 4.79 6.51 9.64 13 14.6 19.4 3.82 4.95 7.55 9.96 11.3 15 1.87 2.5 3.75 5 5.62 7.5 1.02 1.36 2.04 2.72 3.06 4.08 0.532 0.71 1.06 1.42 1.61 2.15 14.6 19.5 29.2 38.9 43.8 58.4 0.482 0.642 0.964 1.28 1.46 1.95 0.957 1.28 1.91 2.55 2.87 3.83 2.75 3.67 5.51 7.34 8.29 11 3.79 5 7.55 10 11.3 15.1 0.509 0.69 1.02 1.38 1.54 2.09 12.1 16.7 17.4 33.6 15.1 54.4-2.32 13-8.59 25.8-17.6 35.5-0.619 0.672-1.24 1.34-1.88 2.04-14.8 14.6-34.7 18.1-54.7 18.1-1.38 7.4e-4 -2.76 0.00192-4.15 0.0035-3.8 0.00306-7.6-1.02e-4 -11.4-0.00428-4.13-0.00344-8.27-0.00106-12.4 5.77e-4 -7.25 0.00207-14.5 4.31e-4 -21.7-0.00364-10.8-0.00603-21.5-0.00634-32.3-0.00546-18.1 0.00131-36.2-0.00203-54.4-0.00802-17.9-0.00592-35.9-0.00977-53.8-0.0109-1.12-6.87e-5 -2.23-1.37e-4 -3.38-2.08e-4 -5.66-3.38e-4 -11.3-6.4e-4 -17-9.27e-4 -40.1-0.0021-80.3-0.00884-120-0.0183-39-0.00918-78-0.0163-117-0.0205-2.45-2.71e-4 -4.9-5.41e-4 -7.35-8.12e-4 -19.9-0.00219-39.8-0.00423-59.8-0.00624-92.1-0.00939-184-0.0295-276-0.0479v468h76c17.1 3.43 33.3 10.9 43.8 25.5 10.4 15.7 15.6 32.5 12.6 51.4-3.56 17.3-11.9 32.4-26.3 43-13.9 9.08-28.1 12.3-44.5 12.3-1.71 0.0034-1.71 0.0034-3.46 0.00687-3.82 0.00633-7.64 0.00551-11.5 0.00469-2.74 0.00245-5.48 0.00637-8.22 0.0102-6.67 0.0083-13.3 0.0111-20 0.0116-5.42 4.76e-4 -10.8 0.00253-16.3 0.0057-15.4 0.0088-30.8 0.0134-46.2 0.0127-0.829-4e-5 -1.66-7.99e-5 -2.51-1.21e-4 -1.25-6.13e-5 -1.25-6.13e-5 -2.52-1.24e-4 -13.4-4.06e-4 -26.9 0.00916-40.3 0.0233-13.8 0.0144-27.6 0.0213-41.5 0.0204-7.75-3.31e-4 -15.5 0.00239-23.3 0.0132-6.6 0.00913-13.2 0.0113-19.8 0.00449-3.37-0.00325-6.73-0.00227-10.1 0.00535-3.66 0.00774-7.32 0.00306-11-0.00463-1.05 0.00514-2.1 0.0103-3.18 0.0156-10-0.0464-19.8-1.17-29-5.39-1.02-0.461-1.02-0.461-2.06-0.931-6.02-2.84-11-6.33-15.8-10.9-0.84-0.789-1.68-1.58-2.55-2.39-7.18-7.27-11.5-15.3-15.5-24.6-0.383-0.901-0.766-1.8-1.16-2.73-4.24-12.4-3.27-29.1 1.16-41.3l0.844-2.33c3.32-8.16 8.35-16.1 14.2-22.7h2c0.33-0.99 0.66-1.98 1-3 2.2-1.75 4.35-3.33 6.69-4.88 0.668-0.444 1.34-0.888 2.03-1.35 10.5-6.7 21.5-9.88 33.9-9.98 0.742-0.0099 1.48-0.0198 2.25-0.03 2.43-0.0314 4.87-0.0563 7.3-0.0811 1.7-0.0206 3.39-0.0416 5.09-0.063 4.45-0.055 8.9-0.105 13.3-0.153 4.54-0.0504 9.09-0.106 13.6-0.161 8.91-0.107 17.8-0.209 26.7-0.307 2.44e-4 -0.989 4.88e-4 -1.98 7.4e-4 -3 0.00839-33.9 0.0177-67.7 0.0276-102 2e-4 -0.682 3.99e-4 -1.36 6.05e-4 -2.07 0.0214-73.1 0.0487-146 0.0877-219 8.66e-4 -1.62 0.00173-3.25 0.0026-4.87 0.0182-34.1 0.0372-68.2 0.0572-102 0.01-17.1 0.0199-34.2 0.0296-51.4 0.00147-2.58 0.00294-5.17 0.00441-7.75 0.0226-39.8 0.0419-79.5 0.0513-119 2.03e-4 -0.855 4.06e-4 -1.71 6.15e-4 -2.59 0.00325-13.8 0.00622-27.6 0.00915-41.4 0.00844-39.7 0.019-79.4 0.0434-119 5.02e-4 -0.817 1e-3 -1.63 0.00152-2.47 0.0111-17.9 0.0232-35.9 0.0363-53.8 0.00527-7.21 0.0104-14.4 0.0155-21.6 5.58e-4 -0.79 0.00112-1.58 0.00169-2.39 0.0179-25.4 0.0232-50.9 0.0218-76.3-0.00135-25.6 0.00973-51.2 0.038-76.9 0.00391-3.54 0.00768-7.09 0.0114-10.6 7.27e-4 -0.695 0.00145-1.39 0.0022-2.1 0.0111-11 0.00887-22 9.86e-4 -33-0.00748-10.8-3.67e-4 -21.6 0.0211-32.4 0.0111-5.78 0.0159-11.6 0.00302-17.3-0.0116-5.26-0.00463-10.5 0.0168-15.8 0.00449-1.89 0.00236-3.77-0.00738-5.66-0.106-22.1 4.9-40.4 20.7-56.4 23.8-22.3 59.6-23.9 86.1-5.34z" fill="#000002"/>
</svg>
