<?xml version="1.0" encoding="UTF-8"?>
<svg version="1.1" viewBox="0 0 1600 1600" width="1280" height="1280" xmlns="http://www.w3.org/2000/svg">
<path transform="translate(486 895)" d="m0 0c1.7 9.06e-4 1.7 9.06e-4 3.43 0.00183 98.8 0.142 195 25.8 277 82.9 0.863 0.606 1.73 1.21 2.62 1.84 10.3 7.28 20.1 15.1 29.7 23.3 4.73 4.05 9.63 7.87 14.6 11.6 1.47 1.13 2.9 2.32 4.32 3.53v2c0.592 0.266 1.18 0.531 1.79 0.805 2.27 1.23 3.73 2.48 5.52 4.32 0.532 0.539 1.06 1.08 1.61 1.63 1.81 1.96 3.55 3.95 5.29 5.98 3.8 4.36 7.89 8.36 12 12.4 6.74 6.65 12.7 13.5 18.4 21.1 2.01 2.62 4.1 5.16 6.2 7.7 10.7 13 20.2 26.4 28.8 40.9 2.55 4.23 5.19 8.41 7.83 12.6 1.18 1.88 2.35 3.77 3.52 5.65 0.476 0.763 0.952 1.53 1.44 2.31 3.67 5.98 6.83 12.1 9.81 18.4 0.47 0.995 0.939 1.99 1.42 3.02 0.971 2.06 1.94 4.13 2.91 6.2 1.35 2.88 2.71 5.75 4.07 8.62 5.6 11.9 10.2 23.9 14.3 36.4 1 2.98 2.07 5.94 3.15 8.89 9.87 27.5 16.1 56.4 19.9 85.3 0.141 1.09 0.141 1.09 0.285 2.2 0.555 4.39 1.04 8.78 1.47 13.2 0.166 1.67 0.339 3.34 0.517 5.02 2.05 19.6 2 39.2 1.92 58.8-0.011 3.48-0.0105 6.97-0.00986 10.5-2.71e-4 3.36-0.00573 6.73-0.013 10.1-0.00318 1.6-0.00515 3.2-0.00589 4.8-0.00215 2.21-0.0109 4.42-0.0216 6.63-0.00381 1.25-0.00762 2.51-0.0116 3.8-0.134 2.8-0.134 2.8-1.13 3.8-2.11 0.0984-4.22 0.124-6.34 0.124-0.674 0.00128-1.35 0.00256-2.04 0.00387-2.29 0.0031-4.58-0.00102-6.88-0.00502-1.65 7.39e-4 -3.31 0.00192-4.96 0.0035-4.59 0.00309-9.17-1.23e-4 -13.8-0.00428-4.97-0.00342-9.95-0.00107-14.9 5.77e-4 -8.73 0.00208-17.5 4.19e-4 -26.2-0.00364-13-0.00602-26-0.00634-39-0.00546-21.8 0.00132-43.7-0.00203-65.5-0.00802-21.6-0.00592-43.3-0.00977-64.9-0.0109-0.671-3.44e-5 -1.34-6.88e-5 -2.03-1.04e-4 -6.13-3.13e-4 -12.3-6.01e-4 -18.4-8.58e-4 -15.2-6.39e-4 -30.5-0.0016-45.7-0.00278-0.694-5.33e-5 -1.39-1.07e-4 -2.1-1.62e-4 -33.8-0.00262-67.6-0.00893-101-0.0155-11.7-0.00229-23.5-0.00457-35.2-0.00677-1.09-2.05e-4 -1.09-2.05e-4 -2.2-4.15e-4 -33.8-0.00634-67.6-0.0101-101-0.0131-2.19-1.98e-4 -4.39-3.97e-4 -6.58-5.97e-4 -14.5-0.00132-29.1-0.00259-43.6-0.00384-28.9-0.00248-57.9-0.00522-86.8-0.00814-1.38-1.39e-4 -2.76-2.78e-4 -4.13-4.17e-4 -88.2-0.00889-176-0.024-275-0.0421-0.041-9.38-0.0719-18.8-0.0907-28.1-0.00903-4.36-0.0212-8.72-0.0413-13.1-0.112-24.8 0.538-49.2 4.13-73.8 0.339-2.49 0.677-4.99 1.02-7.48 0.872-6.2 1.88-12.4 2.98-18.5 0.138-0.778 0.277-1.56 0.419-2.36 1.02-5.59 2.27-11.1 3.58-16.6 0.29-1.23 0.579-2.46 0.878-3.72 8.86-37.3 22.1-71.9 39.1-106 0.415-0.84 0.83-1.68 1.26-2.55 13.5-27.1 30.5-51.9 49.2-75.5 1.26-1.6 2.51-3.2 3.75-4.81 4.67-5.98 9.75-11.5 14.9-17.1 3.96-4.25 7.78-8.61 11.5-13.1 2.84-3.34 5.7-6.42 9.04-9.27 4.14-3.58 8.11-7.32 12.1-11.1 6.19-5.83 12.5-11.4 19.2-16.6 1.39-1.1 2.79-2.2 4.18-3.3 26.1-20.6 54-38.9 83.8-53.7 1.05-0.523 2.1-1.05 3.18-1.59 29.4-14.5 60-25.6 91.8-33.4 1.1-0.274 2.2-0.548 3.33-0.83 41.8-10.3 84.2-13.4 127-13.4z" fill="#000100"/>
<path transform="translate(1177 805)" d="m0 0c0.875 0.0442 1.75 0.0884 2.65 0.134 14.7 0.76 29.3 1.96 44 4.05 1.1 0.147 2.2 0.295 3.34 0.447 43.3 5.88 85.4 19.5 125 38.6 1.85 0.881 3.7 1.76 5.55 2.64 13.7 6.59 26.6 14.2 39.4 22.4 0.744 0.474 1.49 0.947 2.26 1.44 7.83 5.02 15.3 10.4 22.6 16.1 2.98 2.32 6 4.57 9.05 6.8 10.1 7.53 19.4 15.9 28.6 24.5 2.9 2.71 5.84 5.34 8.86 7.91 2.52 2.18 4.74 4.44 6.9 6.98 2.95 3.41 6 6.7 9.12 9.95 6.92 7.23 13.3 14.7 19.4 22.7 1.23 1.62 2.48 3.22 3.74 4.82 10.7 13.6 20.4 27.8 29.2 42.6 1.25 2.09 2.52 4.16 3.8 6.22 6.93 11.3 12.6 23.2 18.2 35.2 1.05 2.23 2.12 4.44 3.23 6.64 9.28 18.8 16.1 39.4 21.4 59.6 0.683 2.56 1.41 5.1 2.15 7.64 18.7 65.7 14.5 135 14.5 203h-536c-1.32-11.6-2.64-23.1-4-35-3.67-29.5-8.89-58.4-17-87-0.186-0.659-0.373-1.32-0.565-2-5.69-20.1-5.69-20.1-13-39.7-2.11-4.99-3.94-10.1-5.81-15.2-5.42-14.4-12.1-28.2-18.6-42.1-0.37-0.79-0.741-1.58-1.12-2.39-5.34-11.3-11.7-22-18.1-32.7-1.77-2.94-3.53-5.89-5.28-8.84-9.13-15.3-19-29.7-29.9-43.8-1.88-2.42-3.72-4.86-5.54-7.33-5.68-7.69-11.5-15-18-22-1.88-2.04-3.75-4.08-5.62-6.12-0.473-0.514-0.945-1.03-1.43-1.56-2.5-2.72-4.96-5.46-7.38-8.25-9.52-11-19.4-21.7-30.4-31.2-2.53-2.2-5-4.47-7.46-6.75-9.79-8.91-20.3-17-30.7-25.1 14.8-15.1 32.1-27.7 49.7-39.5 2.1-1.41 4.2-2.83 6.29-4.26 49.7-33.5 108-54.9 167-64.3 0.818-0.137 1.64-0.275 2.48-0.417 20.3-3.4 40.9-4.3 61.4-5.21 0.894-0.0401 1.79-0.0802 2.71-0.122 14.6-0.578 29.2-0.184 43.8 0.559z" fill="#000100"/>
<path transform="translate(553,187)" d="m0 0c1.32 0.322 1.32 0.322 2.67 0.651 20.7 5.18 40.5 13.4 59.3 23.3 1.54 0.772 1.54 0.772 3.12 1.56 15.6 7.98 30.3 18.4 43.9 29.4 0.541 0.439 1.08 0.878 1.64 1.33 7.55 6.16 14.6 12.7 21.4 19.7 2.29 2.3 4.58 4.6 6.92 6.85 5.51 5.35 10.3 11.1 15.1 17.1 1.14 1.41 1.14 1.41 2.3 2.86 46 58.2 69.9 132 67.7 206-0.014 0.75-0.028 1.5-0.0425 2.27-1.34 68-25.9 139-70 191-1.26 1.51-1.26 1.51-2.54 3.06-16.3 19.5-16.3 19.5-25.7 27.4-1.76 1.52-3.33 3.12-4.93 4.81-5.43 5.52-11.7 10.1-17.9 14.8-0.909 0.692-1.82 1.38-2.75 2.1-19 14.1-39.4 25.8-61.2 34.9-0.705 0.3-1.41 0.6-2.14 0.909-19.8 8.38-40.7 13.6-61.9 17.1-0.676 0.112-1.35 0.224-2.05 0.339-13.6 2.21-27.2 2.87-41 2.85-0.724-6.04e-4 -1.45-0.00121-2.19-0.00183-11.7-0.0264-23.2-0.482-34.7-2.19-0.877-0.124-1.75-0.247-2.66-0.375-39.9-5.77-78.7-20.5-112-42.6l-1.79-1.17c-12.3-8.15-23.8-17.3-34.6-27.4-2.59-2.45-2.59-2.45-5.46-4.6l-2.16-1.81v-2l-1.79-0.805c-6.53-3.54-11.4-10.6-16.2-16.2-0.813-0.924-1.63-1.85-2.46-2.8-7.52-8.61-14.1-17.8-20.5-27.2-0.464-0.674-0.927-1.35-1.4-2.04-5.33-7.76-10.3-15.6-14.6-24l-1.79-3.43c-24.2-46.9-36.5-97.9-36.4-151 9.37e-4 -0.864 0.00187-1.73 0.00284-2.62 0.0302-12.9 0.275-25.6 2.18-38.3l0.473-3.23c9.39-62.6 34.5-121 77-168 1.41-1.57 2.8-3.15 4.2-4.73 11.6-13 24.4-24.6 38.3-34.9 0.553-0.416 1.11-0.831 1.68-1.26 38.5-28.8 83.5-47.6 131-53.7 0.886-0.116 1.77-0.231 2.69-0.351 33.9-4.23 68.2-1.75 101 6.35z" fill="#000100"/>
<path transform="translate(1312 287)" d="m0 0c9.62 8.8 18.6 18 26.6 28.3 0.993 1.24 1.99 2.48 2.98 3.72 8.61 10.9 16 22.3 23 34.3 0.39 0.662 0.781 1.32 1.18 2.01 24.1 41.3 35 91.5 33.8 139-0.0126 0.679-0.0251 1.36-0.0381 2.06-1.15 53-17.8 107-49 150-0.748 1.04-1.5 2.08-2.27 3.14-4.85 6.52-9.93 12.8-15.2 18.9-1.43 1.67-2.85 3.34-4.25 5.04-3.08 3.75-6.44 6.87-10.1 10-2.2 1.94-4.21 4-6.24 6.12-41.7 42.2-105 63.6-163 64-65-0.439-124-26.5-171-71.2-0.488-0.466-0.977-0.933-1.48-1.41-5.88-5.64-11.3-11.5-16.3-17.9-1.42-1.78-2.86-3.54-4.34-5.27-6.79-7.97-12.3-16.6-17.8-25.5-0.462-0.743-0.924-1.49-1.4-2.25-23.3-37.8-37.5-84.3-38.6-129-0.0307-1.25-0.0307-1.25-0.062-2.53-0.656-31.4 3.22-62.3 12.1-92.5 0.224-0.773 0.448-1.55 0.678-2.34 2.91-9.85 6.73-19.2 10.8-28.7 0.676-1.56 0.676-1.56 1.37-3.15 2.57-5.78 5.4-11.2 8.75-16.6 1.47-2.41 2.78-4.88 4.07-7.39 9.76-18 23.1-34.2 37.3-48.9 0.632-0.664 1.26-1.33 1.91-2.01 36.1-37.8 83.1-62.1 135-70.8 1.22-0.207 2.44-0.414 3.69-0.627 71.9-11.5 145 13 198 61.2z" fill="#000100"/>
</svg>
