<?xml version="1.0" encoding="UTF-8"?>
<svg version="1.1" viewBox="0 0 1600 1600" width="1280" height="1280" xmlns="http://www.w3.org/2000/svg">
<path transform="translate(1396 33)" d="m0 0c4.3 3.65 7.95 7.62 11.5 12 0.651 0.776 1.3 1.55 1.97 2.35 5.13 6.17 10 12.5 14.9 18.9 9.91 13 20 25.9 30.2 38.8 10.6 13.5 21.2 27 31.6 40.7 4.53 5.95 9.16 11.8 13.9 17.6 3.75 4.66 7.4 9.4 11 14.2 4.64 6.11 9.38 12.1 14.2 18.1 3.59 4.47 7.11 8.99 10.6 13.5 3.04 3.97 6.12 7.91 9.22 11.8 3.53 4.48 7.03 8.97 10.5 13.5 3.39 4.42 6.81 8.81 10.2 13.2 0.448 0.57 0.895 1.14 1.36 1.73 2.63 3.35 5.27 6.68 7.92 10 9.61 12.1 18.1 23.9 23.5 38.6 0.433 1.11 0.866 2.23 1.31 3.38 2.17 11.4 1.06 22.4-5 32.4-1.7 2.47-3.47 4.84-5.32 7.21-0.598 0.887-1.2 1.77-1.81 2.69-11 11.6-28.4 17.9-44.1 18.4-3.62 0.0285-7.24 0.0252-10.9 0.0105-1.34-0.00187-2.67-0.00329-4.01-0.00429-3.49-0.0038-6.99-0.0136-10.5-0.0247-3.57-0.0103-7.15-0.0148-10.7-0.0198-7-0.0107-14-0.0277-21-0.0488 9.36e-4 1.48 9.36e-4 1.48 0.00189 3 0.0213 33.9 0.0418 67.7 0.0616 102 3.99e-4 0.682 7.98e-4 1.36 0.00121 2.07 0.0428 73.1 0.0796 146 0.105 219 5.58e-4 1.62 0.00112 3.25 0.00167 4.87 0.0117 34.1 0.0226 68.2 0.0325 102 0.00498 17.1 0.0101 34.3 0.0154 51.4 7.97e-4 2.58 0.00159 5.17 0.00238 7.75 0.0122 39.8 0.0279 79.6 0.0533 119 5.48e-4 0.855 0.0011 1.71 0.00166 2.59 0.00885 13.8 0.018 27.6 0.0272 41.4 0.0264 39.7 0.0507 79.5 0.0611 119 2.14e-4 0.817 4.28e-4 1.63 6.49e-4 2.48 0.00466 17.9 0.00824 35.9 0.0108 53.8 0.00105 7.22 0.00225 14.4 0.00351 21.7 1.34e-4 0.79 2.67e-4 1.58 4.05e-4 2.39 0.00438 25.4 0.0215 50.9 0.0452 76.3 0.0239 25.6 0.0353 51.3 0.0294 76.9-8.12e-4 3.55-0.00148 7.09-0.00207 10.6-1.79e-4 1.04-1.79e-4 1.04-3.62e-4 2.11-0.00152 11 0.0104 22 0.028 33 0.017 10.8 0.0194 21.6 0.00729 32.5-0.00603 5.78-0.0058 11.6 0.0122 17.3 0.0163 5.27 0.0139 10.5-0.00297 15.8-0.00284 1.89 9.12e-4 3.77 0.0124 5.66 0.0872 15.3-1.04 31.6-8.26 45.4-0.341 0.689-0.683 1.38-1.03 2.09-3.12 6.11-6.9 11.6-11.2 16.9-0.455 0.617-0.91 1.23-1.38 1.87-11.1 14.4-30.2 23.5-47.6 27.1-0.767 0.166-1.53 0.333-2.33 0.504-11.9 2.2-23.9 1.8-35.9 1.8-2.45 0.00389-4.91 0.00823-7.36 0.013-5.13 0.00743-10.3 0.00719-15.4 0.00191-6.53-0.00579-13.1 0.0111-19.6 0.0343-5.06 0.0148-10.1 0.0156-15.2 0.0125-2.41 5.09e-4 -4.81 0.00567-7.22 0.0158-29.3 0.108-55.8-4.89-77.5-26.1-9.42-9.65-16-20.5-20.6-33.2-0.295-0.771-0.59-1.54-0.895-2.34-4.97-14.3-4.4-30.6-4.35-45.6-0.00148-1.95-0.00384-3.91-0.00699-5.86-0.00609-5.34 1.75e-4 -10.7 0.00856-16 0.0069-5.82 0.00212-11.6-0.00115-17.5-0.00441-10.9 1.66e-4 -21.7 0.00889-32.6 0.00813-10.3 0.0115-20.5 0.0106-30.8-5.74e-5 -0.692-1.15e-4 -1.38-1.74e-4 -2.1-3.13e-4 -3.53-6.97e-4 -7.05-0.00111-10.6-0.00281-25.5 0.00403-51 0.016-76.5 0.0119-25.2 0.0196-50.5 0.0217-75.7 6.88e-5 -0.784 1.38e-4 -1.57 2.09e-4 -2.38 6.26e-4 -7.16 0.0012-14.3 0.00172-21.5 0.00128-17.8 0.0032-35.6 0.00555-53.4 1.6e-4 -1.22 1.6e-4 -1.22 3.23e-4 -2.46 0.00524-39.4 0.0179-78.8 0.0311-118 0.00458-13.7 0.00913-27.3 0.0135-41 2.74e-4 -0.848 5.48e-4 -1.7 8.3e-4 -2.57 0.0127-39.4 0.0201-78.9 0.0262-118 3.96e-4 -2.56 7.95e-4 -5.12 0.00119-7.68 0.00264-17 0.00519-34 0.00768-50.9 0.00495-33.8 0.0104-67.6 0.0163-101 2.78e-4 -1.61 5.57e-4 -3.22 8.34e-4 -4.83 0.0125-72.4 0.0312-145 0.0525-217 2e-4 -0.678 4e-4 -1.36 6.06e-4 -2.05 0.01-33.9 0.0204-67.8 0.0311-102-1.15 0.00117-1.15 0.00117-2.33 0.00236-3.53 0.00311-7.06 0.00502-10.6 0.00692-1.21 0.00124-2.42 0.00249-3.67 0.00377-9.12 0.00367-18.2-0.105-27.3-0.388-1.3-0.0309-2.61-0.0619-3.95-0.0938-20.5-0.618-39.1-5.42-53.8-20.6-9.29-11.6-11.7-24.4-10.3-38.9 2.77-15.3 11.9-27.2 21.6-38.9 3.31-4 6.44-8.11 9.53-12.3 5.06-6.81 10.2-13.5 15.5-20.2 2.29-2.9 4.58-5.81 6.86-8.72 0.917-1.17 1.83-2.33 2.75-3.5 0.454-0.578 0.908-1.16 1.38-1.75 4.13-5.25 4.13-5.25 5.5-7 0.916-1.17 1.83-2.33 2.75-3.5 2.3-2.93 4.61-5.86 6.91-8.79 4.86-6.17 9.68-12.4 14.5-18.6 2.98-3.88 5.99-7.73 9.01-11.6 8.38-10.6 16.7-21.3 24.9-32.1 3.78-4.92 7.59-9.8 11.4-14.7 3.81-4.85 7.6-9.71 11.4-14.6 4.15-5.34 8.31-10.7 12.5-16 4.12-5.24 8.22-10.5 12.3-15.8 0.587-0.754 1.17-1.51 1.78-2.28 3.02-3.89 6.04-7.78 9.03-11.7 14.9-19.5 31.2-39 56.6-43.9 22.7-2.44 42 1.53 60.2 15.6z" fill="#000002"/>
<path transform="translate(898 531)" d="m0 0c1.06-0.00336 2.13-0.00672 3.22-0.0102 3.5-0.00946 7-0.0115 10.5-0.0125 2.45-0.00322 4.89-0.00658 7.34-0.0101 5.12-0.00598 10.2-0.00784 15.4-0.00725 6.54 1.01e-4 13.1-0.0135 19.6-0.0308 5.05-0.0112 10.1-0.0131 15.2-0.0126 2.41-0.00117 4.82-0.00556 7.23-0.0133 30.5-0.0891 55.8 5.3 78.4 26.9 18.8 19.8 25.4 43.6 25.4 70.2 0.00135 1.52 0.00313 3.04 0.00531 4.55 0.00473 4.18 0.00323 8.36 7.22e-4 12.5-0.00163 4.54 0.00251 9.09 0.00591 13.6 0.00516 7.96 0.00657 15.9 0.00554 23.9-0.00152 11.8 0.00263 23.7 0.00787 35.5 0.00968 22.4 0.0125 44.8 0.0131 67.1 4.59e-4 17.3 0.00252 34.6 0.0057 51.8 8.98e-4 4.97 0.00179 9.95 0.00267 14.9 3.32e-4 1.85 3.32e-4 1.85 6.7e-4 3.75 0.00616 34.8 0.0101 69.6 0.00966 104-1.56e-5 1.31-3.12e-5 2.62-4.72e-5 3.97-8.31e-5 6.65-1.82e-4 13.3-2.85e-4 19.9-3.03e-5 2-6.05e-5 4-9.05e-5 6-2.04e-5 1.33-4.14e-5 2.67-6.31e-5 4-6.8e-4 42.2 0.00664 84.4 0.0205 127 0.0154 46.7 0.024 93.3 0.023 140-7.46e-5 4.97-1.23e-4 9.95-1.54e-4 14.9-1.75e-5 1.84-1.75e-5 1.84-3.53e-5 3.71-3.08e-5 19.7 0.00636 39.4 0.015 59.2 0.00847 19.8 0.00947 39.6 0.00289 59.4-0.0037 11.8-0.00185 23.5 0.00794 35.3 0.00599 7.87 0.00471 15.7-0.00247 23.6-0.00389 4.48-0.00464 8.96 0.00346 13.4 0.00731 4.08 0.00531 8.16-0.00392 12.2-0.00171 1.46-1.19e-4 2.93 0.0053 4.39 0.0945 27.3-7.87 51.1-26.9 71-18.6 17.7-41.9 25.4-67.2 25.4-1.06 0.00496-2.12 0.00993-3.21 0.015-3.48 0.0145-6.97 0.0214-10.4 0.0269-1.2 0.00283-2.39 0.00565-3.63 0.00857-6.34 0.015-12.7 0.0242-19 0.0285-6.51 0.00547-13 0.0295-19.5 0.058-5.04 0.0187-10.1 0.0238-15.1 0.0254-2.4 3e-3 -4.8 0.011-7.19 0.0242-30.5 0.156-54-5.87-76.7-26.9-2.02-2.15-3.24-3.77-4.33-6.48h-2c-1.52-2.03-2.9-4.04-4.25-6.19-0.401-0.636-0.802-1.27-1.22-1.93-5.37-8.68-9.41-17.4-11.8-27.3-0.16-0.643-0.319-1.29-0.484-1.95-2.61-11.7-2.35-23.9-2.33-35.9-0.00135-1.49-0.00314-2.99-0.00531-4.48-0.0047-4.08-0.00324-8.17-7.22e-4 -12.2 0.00164-4.45-0.00251-8.9-0.00591-13.4-0.00514-7.79-0.00657-15.6-0.00554-23.4 0.00153-11.6-0.00264-23.2-0.00787-34.8-0.00966-21.9-0.0125-43.8-0.0131-65.7-4.6e-4 -16.9-0.00252-33.8-0.0057-50.8-8.98e-4 -4.87-0.00179-9.74-0.00267-14.6-2.21e-4 -1.21-4.42e-4 -2.42-6.7e-4 -3.67-0.00615-34.1-0.0101-68.1-0.00966-102 1.56e-5 -1.28 3.12e-5 -2.57 4.72e-5 -3.89 8.31e-5 -6.51 1.82e-4 -13 2.85e-4 -19.5 1.99e-5 -1.29 3.99e-5 -2.58 6.04e-5 -3.92 4.04e-5 -2.61 8.22e-5 -5.23 1.25e-4 -7.84 6.13e-4 -40.7-0.00689-81.3-0.0206-122-0.0154-45.7-0.024-91.4-0.023-137 7.46e-5 -4.87 1.23e-4 -9.75 1.54e-4 -14.6 1.17e-5 -1.2 2.33e-5 -2.4 3.53e-5 -3.64 3.08e-5 -19.3-0.00635-38.6-0.015-57.9-0.00848-19.4-0.00946-38.8-0.00289-58.2 0.00369-11.5 0.00188-23-0.00794-34.6-0.00601-7.7-0.00469-15.4 0.00247-23.1 0.00387-4.38 0.00468-8.77-0.00346-13.1-0.117-67.7-0.117-67.7 25.6-93.6 0.884-0.861 1.77-1.72 2.68-2.61 0.74-0.737 1.48-1.47 2.24-2.23 17.3-16.3 39.4-22.9 62.6-22.9z" fill="#000002"/>
<path transform="translate(513 772)" d="m0 0c2.45-0.00389 4.91-0.00823 7.36-0.013 5.13-0.00743 10.3-0.00719 15.4-0.00191 6.53 0.00579 13.1-0.0111 19.6-0.0343 5.06-0.0148 10.1-0.0156 15.2-0.0125 2.41-5.09e-4 4.81-0.00567 7.22-0.0158 26.7-0.0986 49.9 3.69 71 21.4 0.678 0.544 1.36 1.09 2.05 1.65 16.2 13.4 26.8 34.1 29.2 54.8 1.08 12 0.845 24 0.833 36 0.00115 2.61 0.00274 5.22 0.00473 7.83 0.0036 5.67 0.00351 11.3 9.53e-4 17-0.00379 8.43-0.00184 16.9 0.00121 25.3 0.00526 15.1 0.00481 30.1 0.00192 45.2-0.00252 13.2-0.00317 26.3-0.00198 39.5 1.15e-4 1.31 1.15e-4 1.31 2.31e-4 2.65 3.11e-4 3.55 6.3e-4 7.1 9.6e-4 10.7 0.00306 33.3 2.87e-4 66.6-0.0051 99.9-0.00474 29.6-0.00432 59.1 4.61e-4 88.7 0.00536 33.2 0.00748 66.5 0.00439 99.7-3.21e-4 3.54-6.34e-4 7.09-9.43e-4 10.6-7.91e-5 0.873-1.58e-4 1.75-2.4e-4 2.64-0.00114 13.2 1.9e-4 26.3 0.00272 39.5 0.00286 15 0.00214 29.9-0.00328 44.9-0.00293 8.37-0.00314 16.7 6.46e-4 25.1 0.00251 6.26-2.23e-4 12.5-0.00497 18.8-0.00111 2.53-5.54e-4 5.05 0.00188 7.58 0.03 33.8-3.26 62.7-28.1 88-22.5 21.1-50.5 24.3-80 24.3-2.43 0.00389-4.86 0.00823-7.3 0.013-5.08 0.00743-10.2 0.00719-15.2 0.00191-6.47-0.00579-12.9 0.0111-19.4 0.0343-5.02 0.0148-10 0.0156-15.1 0.0125-2.38 5.09e-4 -4.77 0.00567-7.15 0.0158-28.1 0.105-53.1-4.25-74-24.6-1.39-1.39-1.39-1.39-2.82-2.81-0.816-0.804-1.63-1.61-2.47-2.44-18.4-19.1-23.7-44.2-23.7-69.9-0.00175-1.08-0.00351-2.17-0.00531-3.29-0.00463-3.62-0.0022-7.23 2.34e-4 -10.9-0.00187-2.63-0.00413-5.25-0.00687-7.88-0.00514-5.7-0.00657-11.4-0.00554-17.1 0.00153-8.48-0.00264-17-0.00787-25.4-0.00966-16-0.0125-32.1-0.0131-48.1-4.6e-4 -12.4-0.00252-24.8-0.0057-37.1-8.98e-4 -3.57-0.00179-7.13-0.00267-10.7-2.21e-4 -0.886-4.42e-4 -1.77-6.7e-4 -2.69-0.00615-24.9-0.0101-49.9-0.00966-74.8 1.56e-5 -0.939 3.12e-5 -1.88 4.72e-5 -2.85 8.31e-5 -4.76 1.82e-4 -9.52 2.85e-4 -14.3 1.99e-5 -0.946 3.99e-5 -1.89 6.04e-5 -2.87 4.04e-5 -1.91 8.22e-5 -3.82 1.25e-4 -5.74 6.13e-4 -29.7-0.00689-59.5-0.0206-89.2-0.0154-33.4-0.024-66.9-0.023-100 7.46e-5 -3.57 1.23e-4 -7.13 1.54e-4 -10.7 1.17e-5 -0.878 2.33e-5 -1.76 3.53e-5 -2.66 3.07e-5 -14.1-0.00635-28.2-0.015-42.4-0.00849-14.2-0.00946-28.4-0.00289-42.6 0.00369-8.43 0.00188-16.9-0.00794-25.3-0.00602-5.64-0.00469-11.3 0.00247-16.9 0.00387-3.21 0.00358-6.41-0.00346-9.62-0.0596-29.1 3.01-54.2 22.3-77.3 0.66-0.99 1.32-1.98 2-3h2c0.33-0.99 0.66-1.98 1-3 23.5-21.6 49.4-25.3 80.2-25.3z" fill="#000002"/>
<path transform="translate(113 985)" d="m0 0c1.94-0.00322 3.88-0.00659 5.82-0.0101 4.05-0.00596 8.11-0.00784 12.2-0.00725 5.15 1.01e-4 10.3-0.0135 15.4-0.0308 4-0.0112 8.01-0.0131 12-0.0126 1.9-0.00117 3.79-0.00551 5.69-0.0133 32.7-0.122 59.5 6.42 83.7 29.6 22.5 23.3 27.6 52 27.5 83.3 0.00231 1.69 0.00549 3.38 0.00945 5.07 0.00826 4.59 0.00426 9.18-0.00197 13.8-0.00456 4.97 0.00248 9.94 0.00796 14.9 0.00886 9.72 0.00699 19.4 0.00117 29.2-0.00453 7.9-0.00512 15.8-0.00295 23.7 3.06e-4 1.13 6.13e-4 2.26 9.29e-4 3.42 6.39e-4 2.29 0.00129 4.58 0.00195 6.87 0.00569 21.4-8.38e-4 42.9-0.0116 64.3-0.00894 18.4-0.00738 36.8 0.00184 55.1 0.0107 21.4 0.0149 42.8 0.00878 64.1-6.37e-4 2.28-0.00127 4.56-0.00189 6.85-3.09e-4 1.12-6.17e-4 2.25-9.35e-4 3.4-0.00172 7.89 0.00118 15.8 0.00589 23.7 0.00563 9.62 0.00405 19.2-0.00656 28.9-0.00523 4.9-0.00736 9.8-7.02e-4 14.7 0.00601 4.5 0.0026 8.99-0.00796 13.5-0.00221 1.62-0.00115 3.23 0.00375 4.85 0.0768 27.5-4.68 52.1-22.3 74.1-0.592 0.757-1.18 1.51-1.79 2.29-15.9 19.1-39.6 29.8-64 32.5-8.04 0.7-16.2 0.501-24.2 0.495-2.11 0.0039-4.23 0.00823-6.34 0.013-4.41 0.00742-8.82 0.0072-13.2 0.00191-5.61-0.00579-11.2 0.0111-16.8 0.0343-4.36 0.0148-8.72 0.0156-13.1 0.0125-2.07 5.08e-4 -4.13 0.00564-6.2 0.0158-31.7 0.137-57.1-7.54-80.4-30-12.8-12.7-20.3-29.1-24.9-46.4-0.342-1.23-0.685-2.46-1.04-3.72-0.993-4.01-1.22-7.76-1.23-11.9-0.00411-0.727-0.00821-1.45-0.0124-2.2-0.0113-2.43-0.00843-4.85-0.00559-7.27-0.00517-1.76-0.0112-3.52-0.018-5.28-0.0161-4.83-0.0197-9.66-0.0212-14.5-0.00371-5.21-0.0188-10.4-0.0323-15.6-0.0271-11.4-0.0392-22.8-0.048-34.2-0.00553-7.12-0.014-14.2-0.023-21.4-0.0244-19.7-0.045-39.5-0.0518-59.2-4.39e-4 -1.26-8.78e-4 -2.53-0.00133-3.83-4.37e-4 -1.27-8.73e-4 -2.53-0.00132-3.84-8.87e-4 -2.57-0.00178-5.13-0.00268-7.7-4.43e-4 -1.27-8.86e-4 -2.55-0.00134-3.86-0.00789-20.6-0.0428-41.2-0.0894-61.8-0.0475-21.2-0.0724-42.3-0.0747-63.5-0.00183-11.9-0.0132-23.8-0.0496-35.6-0.0309-10.1-0.041-20.2-0.0245-30.4 0.00777-5.16 0.00617-10.3-0.0221-15.5-0.189-36.6 4.2-66.4 30.7-93.7 23-23.1 51.9-27.2 82.9-27.2z" fill="#000002"/>
</svg>
